<!DOCTYPE svg PUBLIC "-//W3C//DTD SVG 1.1//EN" "http://www.w3.org/Graphics/SVG/1.1/DTD/svg11.dtd">
<!-- Uploaded to: SVG Repo, www.svgrepo.com, Transformed by: SVG Repo Mixer Tools -->
<svg width="800px" height="800px" viewBox="0 0 1024 1024" class="icon" version="1.1" xmlns="http://www.w3.org/2000/svg" fill="#000000">
<g id="SVGRepo_bgCarrier" stroke-width="0"/>
<g id="SVGRepo_tracerCarrier" stroke-linecap="round" stroke-linejoin="round"/>
<g id="SVGRepo_iconCarrier">
<path d="M993.763 493.538v35c0 13.333-6.04 26.664-18.135 37.139-140.15 121.42-280.35 242.794-420.487 364.219-11.817 10.238-25.814 15.501-42.456 15.501v-35c16.642 0 30.639-5.264 42.456-15.501 140.138-121.425 280.335-242.802 420.487-364.218 12.095-10.476 18.135-23.804 18.135-37.14z" fill="#56C3E9"/>
<path d="M30.239 528.367v-3.5-1.75-3.5-3.5-1.75-3.5-3.5-1.75-3.5-3.5-1.75-3.5c0 14.707 6.701 29.313 19.037 40.019 138.449 120.064 277.049 239.996 415.562 360.02 13.002 11.26 28.74 16.466 47.852 16.994v35c-19.109-0.528-34.85-5.734-47.852-16.994C326.325 808.382 187.725 688.45 49.276 568.386c-12.337-10.705-19.037-25.312-19.037-40.019z" fill="#56C3E9"/>
<path d="M510.786 76.601c16.263 0 32.546 5.362 44.946 16.097 139.949 121.188 279.9 242.376 419.819 363.586 24.241 20.995 24.295 53.413 0.078 74.397-140.15 121.418-280.351 242.795-420.488 364.217-11.816 10.239-25.813 15.502-42.454 15.502-19.109-0.528-34.85-5.734-47.853-16.994-138.51-120.024-277.11-239.956-415.559-360.02-19.581-16.988-24.96-43.81-11.895-65.251 3.919-6.438 8.669-11.829 14.465-16.849C189.954 331.734 328.024 212.152 466.107 92.567c12.296-10.64 28.478-15.966 44.679-15.966z" fill="#7DCCDF"/>
<path d="M644.064 422.878v16.8c0-0.481-0.135-1.069-0.344-1.769-2.813-9.279-6.875-18.104-12.52-26.362-18.91-27.628-47.8-41.491-83.934-44.207a83.77 83.77 0 0 0-6.212-0.231c-4.07 0-8.079 0.294-12.04 0.835v-16.8a88.595 88.595 0 0 1 12.04-0.835c2.056 0 4.125 0.075 6.212 0.232 36.137 2.715 65.023 16.578 83.934 44.207 5.645 8.258 9.71 17.083 12.52 26.362 0.21 0.699 0.344 1.286 0.344 1.768" fill="#040000"/>
<path d="M529.016 351.144v16.8c-8.348 1.141-16.454 3.383-24.349 6.285v-16.8c7.895-2.903 16.001-5.143 24.349-6.285" fill="#040000"/>
<path d="M504.668 357.429v16.8a178.404 178.404 0 0 0-10.978 4.477c-5.663 2.523-11.073 5.377-16.16 8.627v-16.8c5.087-3.25 10.498-6.104 16.16-8.627a177.523 177.523 0 0 1 10.978-4.477M477.53 370.532v16.8c-4.122 2.633-8.032 5.525-11.69 8.711-0.475 0.413-0.983 0.79-1.329 1.2v-16.8c0.347-0.409 0.854-0.787 1.329-1.2 3.658-3.186 7.568-6.077 11.69-8.711" fill="#040000"/>
<path d="M464.511 380.443v16.8c-0.242 0.284-0.406 0.583-0.431 0.923v-16.799c0.024-0.34 0.189-0.639 0.431-0.924M464.08 381.365v16.884-16.8-0.084" fill="#040000"/>
<path d="M470.29 442.727v16.8c-1.208 0.163-2.39 0.245-3.545 0.245-10.169 0-18.045-6.215-18.657-15.445-0.928-14.055-8.003-25.456-23.13-32.736-6.363-3.064-13.047-4.402-19.563-4.402-2.207 0-4.398 0.153-6.549 0.447v-16.8a48.383 48.383 0 0 1 6.549-0.446c6.515 0 13.2 1.338 19.563 4.4 15.129 7.28 22.205 18.681 23.13 32.736 0.614 9.23 8.489 15.445 18.657 15.445 1.155 0 2.338-0.08 3.545-0.244M398.845 390.836v16.8a50.077 50.077 0 0 0-10.482 2.61v-16.8a50.14 50.14 0 0 1 10.482-2.61M388.362 393.448v16.8a47.943 47.943 0 0 0-9.25 4.566v-16.8a47.686 47.686 0 0 1 9.25-4.566M379.109 398.013v16.8c-3.417 2.186-6.396 4.74-8.769 7.542v-16.8c2.374-2.802 5.353-5.358 8.769-7.542M370.34 405.557v16.8c-1.546 1.827-2.833 3.754-3.821 5.749-3.071 6.199-4.696 12.486-5.083 18.922v-16.8c0.384-6.436 2.013-12.723 5.083-18.922 0.988-1.997 2.276-3.924 3.821-5.749" fill="#040000"/>
<path d="M470.29 442.727v16.8c-1.208 0.163-2.39 0.245-3.545 0.245-10.169 0-18.045-6.215-18.657-15.445-0.928-14.055-8.003-25.456-23.13-32.736-6.363-3.064-13.047-4.402-19.563-4.402-2.207 0-4.398 0.153-6.549 0.447v-16.8a48.383 48.383 0 0 1 6.549-0.446c6.515 0 13.2 1.338 19.563 4.4 15.129 7.28 22.205 18.681 23.13 32.736 0.614 9.23 8.489 15.445 18.657 15.445 1.155 0 2.338-0.08 3.545-0.244" fill="#040000"/>
<path d="M644.064 422.878v16.8c0-0.481-0.135-1.069-0.344-1.769-2.813-9.279-6.875-18.104-12.52-26.362-18.91-27.628-47.8-41.491-83.934-44.207a83.77 83.77 0 0 0-6.212-0.231c-4.07 0-8.079 0.294-12.04 0.835v-16.8a88.595 88.595 0 0 1 12.04-0.835c2.056 0 4.125 0.075 6.212 0.232 36.137 2.715 65.023 16.578 83.934 44.207 5.645 8.258 9.71 17.083 12.52 26.362 0.21 0.699 0.344 1.286 0.344 1.768" fill="#040000"/>
<path d="M644.073 422.921v16.8c0 0.049 0 0.098-0.004 0.146v-16.8c0.004-0.047 0.004-0.095 0.004-0.146" fill="#949394"/>
<path d="M644.069 423.066v16.8c-0.02 0.328-0.111 0.604-0.297 0.827v-16.8c0.186-0.221 0.278-0.496 0.297-0.827" fill="#989898"/>
<path d="M643.772 423.894v16.8a1.282 1.282 0 0 1-0.307 0.262v-16.8a1.22 1.22 0 0 0 0.307-0.262" fill="#949394"/>
<path d="M643.466 424.158v16.8c-0.11 0.075-0.24 0.137-0.39 0.191v-16.8a1.94 1.94 0 0 0 0.39-0.191" fill="#8E8E8E"/>
<path d="M643.076 424.348v16.8a3.896 3.896 0 0 1-0.797 0.185v-16.8c0.312-0.043 0.575-0.105 0.797-0.185" fill="#8A8A8A"/>
<path d="M642.279 424.532v16.8a9.381 9.381 0 0 1-1.261 0.073v-16.8a9.381 9.381 0 0 0 1.261-0.073" fill="#858585"/>
<path d="M483.664 425.657v16.8c0-15.981-5.512-30.333-18.51-42.416-0.778-0.725-1.076-1.299-1.076-1.792v-16.8c0 0.493 0.297 1.067 1.076 1.792 12.998 12.084 18.51 26.435 18.51 42.416" fill="#858585"/>
<path d="M370.34 405.557v16.8c-1.546 1.827-2.833 3.754-3.821 5.749-3.071 6.199-4.696 12.486-5.083 18.922v-16.8c0.384-6.436 2.013-12.723 5.083-18.922 0.988-1.997 2.276-3.924 3.821-5.749" fill="#040000"/>
<path d="M361.437 430.228v16.8a51.92 51.92 0 0 0-0.091 3.06v-16.8a48.642 48.642 0 0 1 0.091-3.06" fill="#040000"/>
<path d="M361.533 438.189v16.8c0-0.272-0.014-0.551-0.031-0.833a53.518 53.518 0 0 1-0.156-4.069v-16.8c0 1.35 0.053 2.704 0.156 4.069 0.02 0.283 0.031 0.561 0.031 0.833" fill="#858585"/>
<path d="M641.016 424.604v16.8a159.11 159.11 0 0 0-2.985-0.032c-5.223 0-10.447 0.316-15.629 1.023h-0.001v-16.8h0.001c5.182-0.708 10.406-1.022 15.629-1.022 0.886 0 1.777 0.01 2.985 0.031" fill="#858585"/>
<path d="M622.4 425.597v16.8a12.83 12.83 0 0 0-2.658 0.673v-16.8c0.877-0.32 1.769-0.551 2.658-0.673" fill="#8A8A8A"/>
<path d="M619.742 426.271v16.8c-1.07 0.392-2.116 0.923-3.108 1.557v-16.8a16.483 16.483 0 0 1 3.108-1.557" fill="#8E8E8E"/>
<path d="M616.634 427.831v16.8a18.585 18.585 0 0 0-4.126 3.608v-16.8a18.534 18.534 0 0 1 4.126-3.608" fill="#949394"/>
<path d="M612.508 431.438v16.8c-1.823 2.153-3.031 4.626-3.175 6.951v-16.8c0.144-2.325 1.352-4.798 3.175-6.951" fill="#989898"/>
<path d="M609.333 438.39v16.8c-0.003 0.03-0.003 0.056-0.009 0.086a50.433 50.433 0 0 0-0.069 2.375v-16.8c0-0.779 0.03-1.574 0.069-2.375 0.006-0.03 0.006-0.059 0.009-0.086" fill="#949394"/>
<path d="M483.662 425.656v16.8c0 1.393-0.042 2.8-0.124 4.218v0.005-16.8-0.006c0.082-1.417 0.124-2.824 0.124-4.217" fill="#040000"/>
<path d="M483.538 429.879v16.8c-0.134 2.248-1.489 4.919-3.447 7.226v-16.8c1.957-2.308 3.313-4.977 3.447-7.226M480.091 437.105v16.8c-1.201 1.415-2.625 2.696-4.133 3.661v-16.8c1.508-0.965 2.934-2.245 4.133-3.661M475.958 440.766v16.8a13.14 13.14 0 0 1-2.482 1.257v-16.8a13.08 13.08 0 0 0 2.482-1.257M473.473 442.022v16.8a9.46 9.46 0 0 1-1.375 0.392c-0.607 0.125-1.21 0.227-1.809 0.311v-16.8a29.761 29.761 0 0 0 1.809-0.31 9.02 9.02 0 0 0 1.375-0.393" fill="#040000"/>
<path d="M470.29 442.727v16.8c-1.208 0.163-2.39 0.245-3.545 0.245-10.169 0-18.045-6.215-18.657-15.445-0.928-14.055-8.003-25.456-23.13-32.736-6.363-3.064-13.047-4.402-19.563-4.402-2.207 0-4.398 0.153-6.549 0.447v-16.8a48.383 48.383 0 0 1 6.549-0.446c6.515 0 13.2 1.338 19.563 4.4 15.129 7.28 22.205 18.681 23.13 32.736 0.614 9.23 8.489 15.445 18.657 15.445 1.155 0 2.338-0.08 3.545-0.244" fill="#040000"/>
<path d="M715.577 512.719v16.8c0-5.979-1.147-11.892-3.533-17.442-10.727-24.923-34.171-38.619-61.396-40.119a65.195 65.195 0 0 0-3.559-0.094c-3.494 0-6.971 0.246-10.442 0.487-3.439 0.246-6.881 0.484-10.336 0.484-0.382 0-0.766-0.003-1.146-0.008-4.173-0.072-7.146-1.389-10.362-3.634-4.64-3.229-5.542-7.175-5.542-11.535v-16.8c0 4.36 0.902 8.307 5.542 11.535 3.217 2.245 6.189 3.562 10.362 3.634 0.38 0.005 0.764 0.008 1.146 0.008 3.455 0 6.896-0.237 10.336-0.484 3.47-0.24 6.948-0.486 10.442-0.486 1.185 0 2.367 0.03 3.559 0.094 27.227 1.499 50.67 15.195 61.396 40.119 2.386 5.546 3.533 11.46 3.533 17.441" fill="#040000"/>
<path d="M361.53 438.188v16.8c0 0.206-0.007 0.413-0.018 0.612v-16.8a8.16 8.16 0 0 0 0.018-0.612" fill="#040000"/>
<path d="M361.514 438.801v16.8c-0.122 2.019-0.845 3.654-1.985 4.994v-16.8c1.138-1.339 1.863-2.974 1.985-4.994M359.528 443.796v16.8c-0.707 0.833-1.575 1.553-2.555 2.179v-16.8c0.981-0.626 1.849-1.347 2.555-2.179M356.973 445.975v16.8c-0.949 0.608-2.004 1.128-3.121 1.575-4.856 1.957-9.319 4.242-13.4 6.853v-16.8c4.081-2.608 8.546-4.895 13.4-6.852 1.117-0.449 2.172-0.969 3.121-1.576M340.451 454.4v16.8c-5.94 3.794-11.07 8.268-15.42 13.393v-16.8c4.35-5.125 9.479-9.599 15.42-13.393M325.03 467.795v16.8a68.825 68.825 0 0 0-8.173 12.031c-4.417 8.217-8.184 16.667-8.724 25.629v-16.8c0.544-8.962 4.308-17.413 8.724-25.629a68.88 68.88 0 0 1 8.173-12.031M308.132 505.455v16.8a36.542 36.542 0 0 0-0.065 2.199v-16.8a35.64 35.64 0 0 1 0.065-2.199" fill="#040000"/>
<path d="M715.577 512.719v16.8c0-5.979-1.147-11.892-3.533-17.442-10.727-24.923-34.171-38.619-61.396-40.119a65.195 65.195 0 0 0-3.559-0.094c-3.494 0-6.971 0.246-10.442 0.487-3.439 0.246-6.881 0.484-10.336 0.484-0.382 0-0.766-0.003-1.146-0.008-4.173-0.072-7.146-1.389-10.362-3.634-4.64-3.229-5.542-7.175-5.542-11.535v-16.8c0 4.36 0.902 8.307 5.542 11.535 3.217 2.245 6.189 3.562 10.362 3.634 0.38 0.005 0.764 0.008 1.146 0.008 3.455 0 6.896-0.237 10.336-0.484 3.47-0.24 6.948-0.486 10.442-0.486 1.185 0 2.367 0.03 3.559 0.094 27.227 1.499 50.67 15.195 61.396 40.119 2.386 5.546 3.533 11.46 3.533 17.441" fill="#040000"/>
<path d="M283.528 518.876v16.8c0-0.622-0.05-1.239-0.923-1.594v-16.8c0.873 0.354 0.923 0.972 0.923 1.594z" fill="#58A1D8"/>
<path d="M283.528 518.876v16.8c0-0.622-0.05-1.239-0.923-1.594v-16.8c0.873 0.354 0.923 0.972 0.923 1.594" fill="#58A1D8"/>
<path d="M715.577 512.721v16.801c0 0.984-0.031 1.974-0.093 2.965v-16.8c0.062-0.991 0.093-1.98 0.093-2.966" fill="#949394"/>
<path d="M715.484 515.688v16.801c-0.7 11.153-5.313 22.365-13.234 31.714v-16.8c7.921-9.352 12.534-20.564 13.234-31.715" fill="#989898"/>
<path d="M702.25 547.402v16.8c-3.892 4.596-8.586 8.743-14.006 12.212v-16.8a62.466 62.466 0 0 0 14.006-12.212" fill="#949394"/>
<path d="M688.244 559.614v16.8a66.6 66.6 0 0 1-12.898 6.385v-16.8a66.6 66.6 0 0 0 12.898-6.385" fill="#8E8E8E"/>
<path d="M675.346 565.996v16.8a71.044 71.044 0 0 1-8.743 2.582 108.677 108.677 0 0 1-9.302 1.686v-16.8c3.113-0.427 6.212-0.984 9.302-1.687a70.523 70.523 0 0 0 8.743-2.581" fill="#8A8A8A"/>
<path d="M657.301 570.264v16.8c-5.26 0.719-10.559 1.06-15.907 1.064-21.129 0.007-42.255 0.01-63.379 0.01s-42.253-0.003-63.38-0.003c-24.059 0-48.12-0.005-72.178-0.005-18.047 0-36.089 0.004-54.134 0.015-15.53 0-30.162-2.731-43.738-9.356-21.611-10.539-32.044-27.403-35.915-47.848a34.872 34.872 0 0 1-0.605-6.486v-16.8c0 2.129 0.191 4.289 0.605 6.486 3.874 20.444 14.305 37.306 35.915 47.847 13.576 6.622 28.208 9.357 43.738 9.357 18.044-0.011 36.087-0.015 54.134-0.015 24.059 0 48.12 0.005 72.178 0.005 21.128 0 42.257 0.003 63.38 0.003s42.25-0.003 63.379-0.01a118.249 118.249 0 0 0 15.907-1.064" fill="#858585"/>
<path d="M541.056 350.31c2.056 0 4.125 0.074 6.212 0.23 36.138 2.715 65.023 16.578 83.935 44.207 5.644 8.258 9.709 17.083 12.519 26.363 0.726 2.419 0.565 3.495-2.705 3.495a158.188 158.188 0 0 0-2.985-0.031c-5.223 0-10.445 0.316-15.629 1.022-6.373 0.874-12.794 7.314-13.077 12.877-0.268 5.308 0 10.108 5.475 13.913 3.216 2.245 6.188 3.562 10.362 3.631 0.378 0.008 0.764 0.011 1.142 0.011 3.459 0 6.898-0.236 10.34-0.482 3.47-0.242 6.946-0.487 10.441-0.488 1.185 0 2.367 0.029 3.56 0.095 27.223 1.498 50.67 15.196 61.396 40.119 11.933 27.736-7.137 64.606-45.441 73.302-8.306 1.885-16.693 2.741-25.21 2.751-21.128 0.007-42.254 0.009-63.379 0.009l-63.38-0.002c-24.058 0-48.119-0.006-72.178-0.006-18.048 0-36.09 0.004-54.134 0.015-15.53 0-30.162-2.732-43.738-9.356-21.614-10.538-32.044-27.402-35.915-47.848-2.317-12.268 2.369-23.491 8.187-34.318 7.811-14.534 19.997-25.428 36.994-32.272 4.555-1.833 8.054-4.801 7.651-10.196-0.677-8.948 0.826-17.581 5.019-26.048 5.744-11.623 21.717-20.916 38.874-20.916 6.515 0 13.202 1.337 19.563 4.399 15.129 7.282 22.203 18.682 23.13 32.737 0.614 9.229 8.489 15.445 18.658 15.445a26.59 26.59 0 0 0 5.353-0.555c5.363-1.089 11.159-7.768 11.44-12.544 1.028-17.678-4.253-33.495-18.386-46.633-2.157-2.008-0.615-2.863 0.684-3.999 8.177-7.115 17.6-12.771 27.854-17.337 14.964-6.649 30.684-11.59 47.368-11.59z" fill="#F7FBFC"/>
<path d="M740.618 504.075c0.776 6.739 0.776 12.685 0.776 18.638-2.188 3.692-2.134 7.875-3.324 11.796-9.02 29.504-38.997 52.829-74.049 57.43a132.892 132.892 0 0 1-17.389 1.159c-51.658 0.03-103.33 0.05-154.99 0.05-35.995 0-71.981-0.011-107.977-0.038-34.534-0.029-62.446-11.828-82.928-36.08-9.394-11.129-14.897-23.719-17.176-37.363-0.142-0.829 0.292-1.877-0.957-2.381v-18.629c2.305-5.779 2.851-11.941 5.29-17.72 8.801-20.796 23.204-37.677 45.312-49.217 2.336-1.223 3.053-2.513 3.104-4.865 0.721-33.457 31.243-58.83 68.943-58.83 2.55 0 5.127 0.116 7.735 0.353 7.287 0.664 14.345 2.357 20.906 5.247 0.753 0.332 1.383 0.511 1.957 0.511 0.886 0 1.634-0.424 2.479-1.358 15.049-16.647 34.101-28.737 56.792-36.395 16.368-5.524 32.615-8.327 48.657-8.327 20.657 0 40.978 4.645 60.801 14.098 32.205 15.355 52.98 39.012 63.212 69.583 2.329 6.949 3.639 14.098 4.335 21.312 0.171 1.779 0.896 2.546 2.953 3.16 37.599 11.176 59.371 33.89 65.538 67.866z m-74.016 64.502c38.305-8.695 57.375-45.568 45.442-73.303-10.727-24.922-34.171-38.619-61.396-40.119a65.195 65.195 0 0 0-3.559-0.094c-3.494 0-6.971 0.246-10.442 0.487-3.439 0.246-6.881 0.484-10.336 0.484-0.382 0-0.766-0.003-1.146-0.008-4.173-0.072-7.146-1.389-10.362-3.634-5.47-3.805-5.743-8.605-5.47-13.913 0.278-5.563 6.7-12.002 13.074-12.876 5.183-0.708 10.405-1.022 15.628-1.022 0.888 0 1.777 0.011 2.664 0.03 3.589 0.002 3.748-1.072 3.023-3.493-2.812-9.279-6.874-18.104-12.518-26.362-18.911-27.629-47.801-41.491-83.935-44.206a83.773 83.773 0 0 0-6.212-0.232c-16.686 0-32.404 4.943-47.365 11.597-10.252 4.567-19.677 10.223-27.851 17.338-1.304 1.134-2.844 1.989-0.686 3.999 14.131 13.137 19.414 28.954 18.384 46.633-0.283 4.774-6.077 11.455-11.44 12.542a26.665 26.665 0 0 1-5.354 0.555c-10.169 0-18.045-6.215-18.657-15.445-0.927-14.055-8.003-25.456-23.13-32.736-6.363-3.062-13.047-4.4-19.562-4.4-17.158 0-33.132 9.293-38.875 20.916-4.193 8.467-5.693 17.101-5.02 26.049 0.403 5.395-3.094 8.363-7.649 10.194-16.999 6.847-29.183 17.739-36.994 32.276-5.817 10.823-10.502 22.05-8.187 34.316 3.872 20.444 14.305 37.307 35.915 47.848 13.576 6.623 28.208 9.36 43.664 9.36 18.116-0.016 36.161-0.019 54.208-0.019 24.058 0 48.12 0.006 72.178 0.006 21.128 0 42.253 0.004 63.38 0.004 21.124 0 42.249-0.004 63.377-0.012 8.516-0.019 16.904-0.874 25.209-2.76" fill="#56C3E9"/>
<path d="M283.528 535.929v-16.8c0 0.188 0.004 0.368 0.033 0.539 2.279 13.643 7.782 26.23 17.176 37.362 20.483 24.251 48.396 36.053 82.928 36.08 35.995 0.028 71.982 0.037 107.976 0.037 51.661 0 103.331-0.022 154.99-0.05 5.819 0 11.604-0.397 17.39-1.157 35.049-4.601 65.026-27.927 74.051-57.431 1.188-3.921 1.138-8.104 3.325-11.796v16.8c-2.189 3.693-2.137 7.875-3.325 11.796-9.022 29.504-38.999 52.83-74.051 57.431-5.785 0.76-11.57 1.158-17.39 1.158-51.657 0.029-103.329 0.049-154.99 0.049-35.995 0-71.981-0.011-107.976-0.037-34.534-0.03-62.445-11.829-82.928-36.08-9.394-11.129-14.897-23.715-17.176-37.362a3.409 3.409 0 0 1-0.033-0.539z" fill="#58A1D8"/>
<path d="M741.395 522.711v16.8c-2.188 3.693-2.134 7.875-3.324 11.797-2.839 9.29-7.761 17.967-14.262 25.642v-16.801c6.501-7.674 11.42-16.354 14.262-25.642 1.187-3.921 1.136-8.103 3.324-11.796M723.809 560.148v16.801c-5.583 6.592-12.336 12.442-19.94 17.302V577.45c7.604-4.858 14.357-10.709 19.94-17.302M703.868 577.453v16.8a97.065 97.065 0 0 1-18.758 9.29v-16.8a97.094 97.094 0 0 0 18.758-9.29M685.107 586.743v16.8a98.029 98.029 0 0 1-20.576 5.126v-16.8a98.338 98.338 0 0 0 20.576-5.126M664.531 591.869v16.8c-0.169 0.026-0.34 0.047-0.51 0.069-5.784 0.762-11.57 1.16-17.389 1.16-51.658 0.029-103.33 0.049-154.99 0.049-35.995 0-71.981-0.011-107.977-0.037-34.534-0.03-62.446-11.829-82.928-36.08-9.394-11.129-14.897-23.717-17.176-37.362a3.16 3.16 0 0 1-0.033-0.539v-16.8c0 0.187 0.004 0.368 0.033 0.539 2.279 13.643 7.782 26.23 17.176 37.362 20.484 24.251 48.396 36.053 82.928 36.08 35.996 0.028 71.982 0.037 107.977 0.037 51.66 0 103.331-0.022 154.99-0.05 5.818 0 11.604-0.397 17.389-1.157 0.17-0.025 0.341-0.047 0.51-0.071" fill="#58A1D8"/>
</g>
</svg>